<svg width="20" height="23" viewBox="0 0 20 23" fill="none" xmlns="http://www.w3.org/2000/svg">
<path d="M9.91379 20.8095C7.86878 20.8095 5.90753 20.0018 4.46148 18.564C3.01544 17.1262 2.20307 15.1762 2.20307 13.1429C2.20307 11.1095 3.01544 9.15948 4.46148 7.72171C5.90753 6.28393 7.86878 5.47619 9.91379 5.47619C11.9588 5.47619 13.9201 6.28393 15.3661 7.72171C16.8121 9.15948 17.6245 11.1095 17.6245 13.1429C17.6245 15.1762 16.8121 17.1262 15.3661 18.564C13.9201 20.0018 11.9588 20.8095 9.91379 20.8095ZM17.6576 6.99857L19.2217 5.44333C18.7261 4.88476 18.2304 4.38095 17.6686 3.89905L16.1044 5.47619C14.397 4.09619 12.249 3.28571 9.91379 3.28571C7.28449 3.28571 4.76288 4.32423 2.90368 6.1728C1.04449 8.02138 0 10.5286 0 13.1429C0 15.7571 1.04449 18.2643 2.90368 20.1129C4.76288 21.9615 7.28449 23 9.91379 23C15.4215 23 19.8276 18.5862 19.8276 13.1429C19.8276 10.821 19.0125 8.68524 17.6576 6.99857ZM8.81226 14.2381H11.0153V7.66667H8.81226V14.2381ZM13.2184 0H6.6092V2.19048H13.2184V0Z" fill="white" fill-opacity="0.7"/>
</svg>
